<?xml version="1.0" encoding="iso-8859-1"?>
<!-- Generator: Adobe Illustrator 17.1.0, SVG Export Plug-In . SVG Version: 6.00 Build 0)  -->
<!DOCTYPE svg PUBLIC "-//W3C//DTD SVG 1.1//EN" "http://www.w3.org/Graphics/SVG/1.1/DTD/svg11.dtd">
<svg version="1.1" id="Capa_1" xmlns="http://www.w3.org/2000/svg" xmlns:xlink="http://www.w3.org/1999/xlink" x="0px" y="0px"
	 viewBox="0 0 193.215 193.215" style="enable-background:new 0 0 193.215 193.215;" xml:space="preserve">
<path d="M179.246,186.588H13.969c-1.381,0-2.5-1.119-2.5-2.5c0-6.75,5.491-12.241,12.241-12.241h2.061v-49.649
	c-3.501-0.63-8.47-1.908-13.177-4.481c-7.439-4.064-12.146-13.602-12.342-14.005c-0.439-0.901-0.297-1.978,0.36-2.734
	c0.657-0.756,1.704-1.05,2.656-0.739c0.045,0.015,4.897,1.545,11.001,1.545c6.879-0.001,12.498-1.863,16.699-5.537
	c8.049-7.039,11.461-16.268,12.723-20.773c-2.609-0.338-7.56-1.274-12.188-3.805c-5.898-3.223-9.608-10.739-9.763-11.058
	c-0.439-0.901-0.297-1.978,0.36-2.734c0.656-0.756,1.703-1.05,2.656-0.739c0.032,0.011,3.702,1.164,8.313,1.164
	c5.167,0,9.376-1.391,12.51-4.132c5.642-4.934,9.159-11.267,10.9-15.011c-1.981-0.243-5.952-0.958-9.656-2.981
	c-4.65-2.541-7.553-8.422-7.674-8.671c-0.439-0.901-0.297-1.978,0.36-2.734c0.657-0.756,1.703-1.048,2.656-0.739
	c0.021,0.007,2.733,0.855,6.136,0.855c3.779,0,6.846-1.007,9.117-2.992c6.382-5.582,9.094-13.486,9.12-13.565
	c0.342-1.018,1.296-1.703,2.37-1.703h55.396c1.074,0,2.027,0.686,2.37,1.703c0.026,0.075,2.777,8.018,9.12,13.565
	c2.271,1.985,5.338,2.992,9.117,2.992c3.402,0,6.115-0.849,6.142-0.857c0.956-0.303,1.998-0.01,2.651,0.747s0.797,1.829,0.359,2.729
	c-0.121,0.249-3.023,6.13-7.674,8.671c-3.705,2.023-7.674,2.738-9.656,2.981c1.741,3.743,5.258,10.077,10.9,15.011
	c3.135,2.741,7.345,4.132,12.511,4.132c4.611,0,8.281-1.154,8.318-1.165c0.952-0.304,1.998-0.013,2.652,0.745
	c0.655,0.756,0.797,1.829,0.359,2.729c-0.155,0.318-3.864,7.835-9.763,11.059c-4.628,2.529-9.579,3.466-12.188,3.804
	c1.261,4.504,4.673,13.734,12.723,20.773c4.202,3.674,9.82,5.537,16.699,5.537c6.103,0,10.957-1.53,11.005-1.546
	c0.953-0.304,1.999-0.013,2.653,0.744c0.655,0.756,0.798,1.83,0.359,2.73c-0.196,0.403-4.902,9.94-12.341,14.005
	c-4.708,2.573-9.675,3.853-13.177,4.481v49.649h2.061c6.75,0,12.241,5.491,12.241,12.241
	C181.746,185.469,180.627,186.588,179.246,186.588z M16.914,181.588h159.387c-1.02-2.765-3.682-4.741-6.796-4.741H23.71
	C20.596,176.847,17.934,178.824,16.914,181.588z M156.941,171.847h5.503v-49.054h-5.503V171.847z M128.399,171.847h23.542v-49.054
	h-23.542V171.847z M116.692,171.847h6.707v-49.054h-6.707V171.847z M107.358,171.847h4.334v-49.054H81.523v49.054h4.335v-24.554
	c0-1.381,1.119-2.5,2.5-2.5h16.5c1.381,0,2.5,1.119,2.5,2.5V171.847z M90.858,171.847h11.5v-22.054h-11.5V171.847z M69.816,171.847
	h6.707v-49.054h-6.707V171.847z M41.274,171.847h23.542v-49.054H41.274V171.847z M30.771,171.847h5.503v-49.054h-5.503V171.847z
	 M154.441,117.793h8.113c0.724-0.047,8.674-0.642,15.67-4.464c2.986-1.632,5.518-4.525,7.318-7.04
	c-1.901,0.279-4.153,0.493-6.597,0.493c-8.125,0-14.851-2.279-19.99-6.773c-9.816-8.584-13.433-19.748-14.566-24.354H48.826
	c-1.133,4.605-4.75,15.77-14.566,24.354c-5.139,4.494-11.864,6.772-19.99,6.773c-2.444,0-4.695-0.214-6.596-0.493
	c1.8,2.515,4.332,5.407,7.318,7.039c7.034,3.845,14.948,4.42,15.667,4.465H154.441z M146.413,70.656h1.065
	c0.62-0.041,6.591-0.51,11.836-3.375c1.751-0.957,3.351-2.567,4.647-4.193c-1.167,0.128-2.454,0.213-3.816,0.213
	c-6.322,0-11.786-1.856-15.802-5.368c-7.503-6.561-11.55-15.063-13.023-18.651H61.895c-1.473,3.589-5.521,12.091-13.023,18.651
	C44.857,61.444,39.393,63.3,33.07,63.3c-1.365,0-2.654-0.085-3.823-0.213c1.256,1.586,2.847,3.205,4.654,4.193
	c5.283,2.887,11.221,3.336,11.833,3.375H146.413z M133.04,34.281h2.221c0.521-0.036,4.898-0.398,8.731-2.492
	c0.859-0.47,1.674-1.168,2.406-1.943c-0.479,0.026-0.976,0.042-1.486,0.042c-4.954,0-9.244-1.462-12.408-4.229
	c-5.545-4.849-8.648-11.07-9.905-14.032H70.617c-1.257,2.962-4.36,9.184-9.905,14.032c-3.164,2.767-7.454,4.229-12.408,4.229
	c-0.511,0-1.007-0.015-1.487-0.042c0.731,0.775,1.546,1.474,2.406,1.942c3.87,2.115,8.213,2.459,8.728,2.493H133.04z"/>
<g>
</g>
<g>
</g>
<g>
</g>
<g>
</g>
<g>
</g>
<g>
</g>
<g>
</g>
<g>
</g>
<g>
</g>
<g>
</g>
<g>
</g>
<g>
</g>
<g>
</g>
<g>
</g>
<g>
</g>
</svg>
