<?xml version='1.0' encoding='iso-8859-1'?>
<!DOCTYPE svg PUBLIC '-//W3C//DTD SVG 1.1//EN' 'http://www.w3.org/Graphics/SVG/1.1/DTD/svg11.dtd'>
<svg style="fill: white" version="1.1" xmlns="http://www.w3.org/2000/svg" viewBox="0 0 512 512" xmlns:xlink="http://www.w3.org/1999/xlink" enable-background="new 0 0 512 512">
  <path d="M448,64h-48V16c0-8.836-7.164-16-16-16s-16,7.164-16,16v48h-64V16c0-8.836-7.164-16-16-16s-16,7.164-16,16v48h-48  c-8.836,0-16,7.164-16,16v48c0,8.836,7.164,16,16,16h16v80c0,4.242,1.688,8.313,4.688,11.313l64,64c3,3,7.07,4.688,11.313,4.688v96  c0,44.109-35.891,80-80,80s-80-35.891-80-80c0-52.938-43.063-96-96-96c-8.836,0-16,7.164-16,16s7.164,16,16,16  c35.289,0,64,28.711,64,64c0,61.758,50.242,112,112,112s112-50.242,112-112v-96c4.242,0,8.313-1.688,11.313-4.688l64-64  c3-3,4.688-7.07,4.688-11.313v-80h16c8.836,0,16-7.164,16-16V80C464,71.164,456.836,64,448,64z M400,217.375L345.375,272h-18.75  L272,217.375V144h128V217.375z M432,112h-16H256h-16V96h192V112z"/>
</svg>
