<?xml version="1.0" encoding="iso-8859-1"?>
<!-- Generator: Adobe Illustrator 19.0.0, SVG Export Plug-In . SVG Version: 6.00 Build 0)  -->
<svg version="1.1" id="Capa_1" xmlns="http://www.w3.org/2000/svg" xmlns:xlink="http://www.w3.org/1999/xlink" x="0px" y="0px"
	 viewBox="0 0 59.998 59.998" style="enable-background:new 0 0 59.998 59.998;;fill:#F5DEB3;" xml:space="preserve">
<g>
	<g>
		<path d="M30,22.999c-3.86,0-7,3.14-7,7s3.14,7,7,7s7-3.14,7-7S33.86,22.999,30,22.999z M30,34.999c-2.757,0-5-2.243-5-5
			s2.243-5,5-5s5,2.243,5,5S32.757,34.999,30,34.999z"/>
		<path d="M54,23.999c-1.717,0-3.311,0.723-4.451,2H41.3c-0.141-0.397-0.302-0.784-0.483-1.16l5.834-5.834
			c1.706,0.103,3.348-0.519,4.562-1.733c1.133-1.133,1.757-2.64,1.757-4.243c0-1.603-0.624-3.109-1.757-4.242
			s-2.64-1.757-4.242-1.757s-3.109,0.624-4.243,1.757c-1.214,1.214-1.831,2.852-1.733,4.562l-5.834,5.834
			c-0.377-0.18-0.763-0.342-1.16-0.483v-8.249c1.277-1.14,2-2.734,2-4.451c0-3.309-2.691-6-6-6s-6,2.691-6,6
			c0,1.717,0.723,3.311,2,4.451v8.248c-0.397,0.141-0.784,0.302-1.16,0.483l-5.834-5.834c0.097-1.71-0.519-3.348-1.733-4.562
			c-1.133-1.133-2.64-1.757-4.243-1.757S9.92,7.653,8.787,8.786c-1.133,1.133-1.757,2.64-1.757,4.242
			c0,1.602,0.624,3.109,1.757,4.243c1.214,1.215,2.857,1.84,4.562,1.733l5.834,5.834c-0.18,0.377-0.342,0.763-0.483,1.16h-8.249
			C9.311,24.722,7.717,23.999,6,23.999c-3.309,0-6,2.691-6,6s2.691,6,6,6c1.717,0,3.311-0.723,4.451-2H18.7
			c0.141,0.397,0.302,0.784,0.483,1.16l-5.834,5.834c-1.706-0.101-3.348,0.519-4.562,1.733c-1.133,1.133-1.757,2.64-1.757,4.243
			s0.624,3.109,1.757,4.242s2.64,1.757,4.242,1.757s3.109-0.624,4.243-1.757c1.214-1.214,1.831-2.852,1.733-4.562l5.834-5.834
			c0.377,0.18,0.763,0.342,1.16,0.483v8.249c-1.277,1.14-2,2.734-2,4.451c0,3.309,2.691,6,6,6s6-2.691,6-6
			c0-1.717-0.723-3.311-2-4.451v-8.248c0.397-0.141,0.784-0.302,1.16-0.483l5.834,5.834c-0.097,1.71,0.519,3.348,1.733,4.562
			c1.133,1.133,2.64,1.757,4.243,1.757s3.109-0.624,4.242-1.757s1.757-2.64,1.757-4.242s-0.624-3.109-1.757-4.243
			c-1.213-1.215-2.851-1.832-4.562-1.733l-5.834-5.834c0.18-0.377,0.342-0.763,0.483-1.16h8.249c1.14,1.277,2.734,2,4.451,2
			c3.309,0,6-2.691,6-6S57.309,23.999,54,23.999z M39.908,31.281c-0.008,0.063-0.019,0.125-0.029,0.188
			c-0.064,0.419-0.149,0.839-0.268,1.256c0,0.001,0,0.002,0,0.003c-0.213,0.749-0.507,1.464-0.88,2.131
			c-0.002,0.003-0.005,0.005-0.007,0.008c-0.203,0.364-0.432,0.705-0.672,1.036c-0.061,0.083-0.122,0.166-0.185,0.247
			c-0.211,0.272-0.436,0.529-0.671,0.774c-0.088,0.092-0.178,0.182-0.27,0.27c-0.245,0.236-0.503,0.461-0.776,0.672
			c-0.081,0.063-0.164,0.124-0.247,0.185c-0.33,0.24-0.672,0.469-1.036,0.672c-0.003,0.002-0.005,0.005-0.008,0.007
			c-0.667,0.373-1.382,0.667-2.131,0.88c-0.001,0-0.002,0-0.003,0c-0.419,0.119-0.839,0.204-1.259,0.268
			c-0.059,0.009-0.118,0.019-0.178,0.027c-0.859,0.115-1.72,0.115-2.58,0c-0.06-0.008-0.118-0.018-0.178-0.027
			c-0.42-0.064-0.84-0.149-1.259-0.268c-0.001,0-0.002,0-0.003,0c-0.749-0.213-1.464-0.507-2.131-0.88
			c-0.003-0.002-0.005-0.005-0.008-0.007c-0.364-0.203-0.705-0.432-1.036-0.672c-0.083-0.061-0.166-0.122-0.247-0.185
			c-0.272-0.211-0.529-0.436-0.774-0.671c-0.092-0.088-0.182-0.178-0.27-0.27c-0.236-0.245-0.461-0.503-0.672-0.776
			c-0.063-0.081-0.124-0.164-0.185-0.247c-0.24-0.33-0.469-0.672-0.672-1.036c-0.002-0.003-0.005-0.005-0.007-0.008
			c-0.373-0.667-0.667-1.382-0.88-2.131c0-0.001,0-0.002,0-0.003c-0.119-0.417-0.203-0.837-0.268-1.256
			c-0.009-0.063-0.021-0.125-0.029-0.188C20.034,30.853,20,30.424,20,29.999s0.034-0.854,0.092-1.282
			c0.008-0.063,0.019-0.125,0.029-0.188c0.064-0.419,0.149-0.839,0.268-1.256c0-0.001,0-0.002,0-0.003
			c0.213-0.749,0.507-1.464,0.88-2.131c0.002-0.003,0.005-0.005,0.007-0.008c0.203-0.364,0.432-0.705,0.672-1.036
			c0.061-0.083,0.122-0.166,0.185-0.247c0.211-0.272,0.436-0.529,0.671-0.774c0.088-0.092,0.178-0.182,0.27-0.27
			c0.245-0.236,0.503-0.461,0.776-0.672c0.081-0.063,0.164-0.124,0.247-0.185c0.33-0.24,0.672-0.469,1.036-0.672
			c0.003-0.002,0.005-0.005,0.008-0.007c0.667-0.373,1.382-0.667,2.131-0.88c0.001,0,0.002,0,0.003,0
			c0.419-0.119,0.839-0.204,1.259-0.268c0.059-0.009,0.118-0.019,0.178-0.027c0.859-0.115,1.72-0.115,2.58,0
			c0.06,0.008,0.118,0.018,0.178,0.027c0.42,0.064,0.84,0.149,1.259,0.268c0.002,0.001,0.004,0,0.006,0.001
			c0.748,0.213,1.462,0.507,2.128,0.879c0.003,0.002,0.005,0.005,0.008,0.007c0.364,0.203,0.705,0.432,1.036,0.672
			c0.083,0.061,0.166,0.122,0.247,0.185c0.272,0.211,0.529,0.436,0.774,0.671c0.092,0.088,0.182,0.178,0.27,0.27
			c0.236,0.245,0.461,0.503,0.672,0.776c0.063,0.081,0.124,0.164,0.185,0.247c0.24,0.33,0.469,0.672,0.672,1.036
			c0.002,0.003,0.005,0.005,0.007,0.008c0.373,0.667,0.667,1.382,0.88,2.131c0,0.001,0,0.002,0,0.003
			c0.119,0.417,0.203,0.837,0.268,1.256c0.009,0.063,0.021,0.125,0.029,0.188C39.966,29.145,40,29.574,40,29.999
			S39.966,30.853,39.908,31.281z M36.948,20.222l5.616-5.615c0.338-0.208,0.524-0.599,0.465-0.997
			c-0.186-1.274,0.219-2.517,1.113-3.41c0.755-0.755,1.76-1.171,2.829-1.171s2.073,0.416,2.828,1.171s1.171,1.76,1.171,2.828
			c0,1.068-0.416,2.073-1.171,2.829c-0.893,0.894-2.131,1.299-3.41,1.113c-0.374-0.06-0.738,0.115-0.951,0.42l-5.661,5.661
			c-0.128-0.181-0.267-0.352-0.404-0.525c-0.047-0.059-0.09-0.122-0.139-0.18c-0.238-0.29-0.486-0.57-0.749-0.833
			s-0.543-0.51-0.832-0.748c-0.058-0.048-0.12-0.091-0.179-0.138C37.3,20.49,37.13,20.35,36.948,20.222z M28,18.173v-7.941
			c0.092-0.386-0.053-0.794-0.375-1.034C26.592,8.428,26,7.262,26,5.999c0-2.206,1.794-4,4-4s4,1.794,4,4
			c0,1.263-0.592,2.429-1.625,3.198c-0.305,0.227-0.44,0.604-0.375,0.97v8.006c-0.1-0.017-0.199-0.024-0.299-0.039
			c-0.204-0.029-0.406-0.061-0.613-0.08c-0.363-0.034-0.726-0.055-1.088-0.055s-0.725,0.021-1.088,0.055
			c-0.207,0.019-0.409,0.051-0.613,0.08C28.199,18.149,28.1,18.156,28,18.173z M20.223,23.051l-5.615-5.616
			c-0.208-0.338-0.606-0.526-0.997-0.465c-1.272,0.184-2.517-0.219-3.41-1.113c-0.755-0.755-1.171-1.76-1.171-2.829
			c0-1.069,0.416-2.073,1.171-2.828c0.755-0.755,1.76-1.171,2.828-1.171s2.073,0.416,2.829,1.171
			c0.894,0.893,1.299,2.136,1.113,3.41c-0.055,0.376,0.115,0.738,0.42,0.951l5.661,5.661c-0.181,0.128-0.352,0.267-0.525,0.404
			c-0.059,0.047-0.122,0.09-0.18,0.139c-0.29,0.238-0.57,0.486-0.833,0.749s-0.51,0.543-0.748,0.832
			c-0.048,0.058-0.091,0.12-0.138,0.179C20.491,22.699,20.351,22.869,20.223,23.051z M18.174,31.999h-7.941
			c-0.385-0.093-0.794,0.053-1.034,0.375C8.429,33.407,7.263,33.999,6,33.999c-2.206,0-4-1.794-4-4s1.794-4,4-4
			c1.263,0,2.429,0.592,3.198,1.625c0.227,0.304,0.604,0.44,0.97,0.375h8.006c-0.017,0.1-0.024,0.199-0.039,0.299
			c-0.029,0.204-0.061,0.406-0.08,0.613C18.021,29.274,18,29.637,18,29.999s0.021,0.725,0.055,1.088
			c0.019,0.207,0.051,0.409,0.08,0.613C18.15,31.8,18.157,31.899,18.174,31.999z M23.052,39.776l-5.616,5.615
			c-0.338,0.208-0.524,0.599-0.465,0.997c0.186,1.274-0.219,2.517-1.113,3.41c-0.755,0.755-1.76,1.171-2.829,1.171
			s-2.073-0.416-2.828-1.171S9.03,48.038,9.03,46.97s0.416-2.073,1.171-2.829c0.75-0.751,1.748-1.157,2.804-1.157
			c0.2,0,0.403,0.015,0.606,0.044c0.375,0.058,0.738-0.115,0.951-0.42l5.661-5.661c0.128,0.181,0.267,0.352,0.404,0.525
			c0.047,0.059,0.09,0.122,0.139,0.18c0.238,0.29,0.486,0.57,0.749,0.833s0.543,0.51,0.832,0.748
			c0.058,0.048,0.12,0.091,0.179,0.138C22.7,39.508,22.87,39.648,23.052,39.776z M32,41.825v7.941
			c-0.092,0.386,0.053,0.794,0.375,1.034C33.408,51.57,34,52.736,34,53.999c0,2.206-1.794,4-4,4s-4-1.794-4-4
			c0-1.263,0.592-2.429,1.625-3.198c0.305-0.227,0.44-0.604,0.375-0.97v-8.006c0.1,0.017,0.199,0.024,0.299,0.039
			c0.204,0.029,0.406,0.061,0.613,0.08c0.352,0.033,0.703,0.052,1.054,0.053c0.012,0,0.023,0.002,0.034,0.002
			s0.022-0.002,0.034-0.002c0.351-0.001,0.703-0.02,1.054-0.053c0.207-0.019,0.409-0.051,0.613-0.08
			C31.801,41.849,31.9,41.843,32,41.825z M39.777,36.947l5.615,5.616c0.208,0.338,0.599,0.524,0.997,0.465
			c1.275-0.183,2.518,0.22,3.41,1.113c0.755,0.755,1.171,1.76,1.171,2.829s-0.416,2.073-1.171,2.828s-1.76,1.171-2.828,1.171
			s-2.073-0.416-2.829-1.171c-0.894-0.893-1.299-2.136-1.113-3.41c0.055-0.376-0.115-0.738-0.42-0.951l-5.661-5.661
			c0.181-0.128,0.352-0.267,0.525-0.404c0.059-0.047,0.122-0.09,0.18-0.139c0.29-0.238,0.57-0.486,0.833-0.749
			s0.51-0.543,0.748-0.832c0.048-0.058,0.091-0.12,0.138-0.179C39.509,37.299,39.649,37.129,39.777,36.947z M54,33.999
			c-1.263,0-2.429-0.592-3.198-1.625c-0.189-0.254-0.484-0.391-0.789-0.391c-0.06,0-0.121,0.005-0.181,0.016h-8.006
			c0.017-0.1,0.024-0.199,0.039-0.299c0.029-0.204,0.061-0.406,0.08-0.613C41.979,30.724,42,30.361,42,29.999
			s-0.021-0.725-0.055-1.088c-0.019-0.207-0.051-0.409-0.08-0.613c-0.015-0.1-0.022-0.2-0.039-0.299h7.941
			c0.384,0.093,0.793-0.053,1.034-0.375c0.77-1.033,1.936-1.625,3.199-1.625c2.206,0,4,1.794,4,4S56.206,33.999,54,33.999z"/>
	</g>
</g>
<g>
</g>
<g>
</g>
<g>
</g>
<g>
</g>
<g>
</g>
<g>
</g>
<g>
</g>
<g>
</g>
<g>
</g>
<g>
</g>
<g>
</g>
<g>
</g>
<g>
</g>
<g>
</g>
<g>
</g>
</svg>
