<?xml version="1.0" encoding="iso-8859-1"?>
<!-- Generator: Adobe Illustrator 17.1.0, SVG Export Plug-In . SVG Version: 6.00 Build 0)  -->
<!DOCTYPE svg PUBLIC "-//W3C//DTD SVG 1.1//EN" "http://www.w3.org/Graphics/SVG/1.1/DTD/svg11.dtd">
<svg version="1.1" id="Capa_1" xmlns="http://www.w3.org/2000/svg" xmlns:xlink="http://www.w3.org/1999/xlink" x="0px" y="0px"
	 viewBox="0 0 278.179 278.179" style="enable-background:new 0 0 278.179 278.179;;fill:#F5DEB3;" xml:space="preserve">
<path style="fill:#000002;;fill:#F5DEB3;" d="M215.774,106.279c0-15.896-12.685-29.956-29.685-33.183V62.561c17-3.153,30.016-16.656,30.016-31.987
	C216.105,13.667,200.736,0,181.437,0H97.409C78.11,0,62.407,13.667,62.407,30.574c0,15.331,12.683,28.833,29.683,31.987v10.536
	c-17,3.226-29.685,17.287-29.685,33.183s12.685,29.955,29.685,33.184v10.536c-17,3.153-30.069,16.745-30.069,32.075
	c0,11.667,7.069,21.832,18.069,27.013v54.091c0,8.284,6.716,15,15,15s15-6.716,15-15V213h58v50.179c0,8.284,6.716,15,15,15
	c8.284,0,15-6.716,15-15v-54.091c11-5.181,18.07-15.345,18.07-27.013c0-15.33-13.07-28.922-30.07-32.075v-10.536
	C203.089,136.234,215.774,122.175,215.774,106.279z"/>
<g>
</g>
<g>
</g>
<g>
</g>
<g>
</g>
<g>
</g>
<g>
</g>
<g>
</g>
<g>
</g>
<g>
</g>
<g>
</g>
<g>
</g>
<g>
</g>
<g>
</g>
<g>
</g>
<g>
</g>
</svg>
