<?xml version="1.0" encoding="iso-8859-1"?>
<!-- Generator: Adobe Illustrator 18.0.0, SVG Export Plug-In . SVG Version: 6.00 Build 0)  -->
<!DOCTYPE svg PUBLIC "-//W3C//DTD SVG 1.1//EN" "http://www.w3.org/Graphics/SVG/1.1/DTD/svg11.dtd">
<svg version="1.1" id="Capa_1" xmlns="http://www.w3.org/2000/svg" xmlns:xlink="http://www.w3.org/1999/xlink" x="0px" y="0px"
	 viewBox="0 0 429.572 429.572" style="enable-background:new 0 0 429.572 429.572;" xml:space="preserve">
<g>
	<polygon style="fill:#B3B3B3;" points="344.014,169.055 344.014,191.038 335.818,201.639 344.014,212.238 335.818,222.839 
		344.014,233.436 335.818,244.034 344.014,254.634 335.818,265.238 344.014,275.839 350.125,311.555 356.125,311.555 
		368.137,297.055 368.137,191.038 368.137,169.055 	"/>
	<polygon style="fill:#999999;" points="338.014,169.055 338.014,191.038 329.818,201.639 338.014,212.238 329.818,222.839 
		338.014,233.436 329.818,244.034 338.014,254.634 329.818,265.238 338.014,275.839 329.818,286.447 350.125,311.555 
		362.137,297.055 362.137,191.038 362.137,169.055 	"/>
	<polygon style="fill:#B3B3B3;" points="356.791,148.493 356.791,0 185.176,0 185.176,148.493 288.418,148.493 288.418,148.493 	"/>
	<rect x="201.868" y="0" style="fill:#CCCCCC;" width="196.92" height="127.494"/>
	<rect x="329.318" y="127.494" style="fill:#B3B3B3;" width="52.343" height="50.544"/>
	<rect x="286.374" y="0" style="fill:#E6E6E6;" width="138.23" height="127.494"/>
	<rect x="305.374" y="19" style="fill:#B3B3B3;" width="100.23" height="89.494"/>
	<rect x="329.318" y="127.494" style="fill:#999999;" width="16.736" height="50.544"/>
	<path style="fill:#999999;" d="M116.803,387.574V216.865c0-37.761,30.612-68.373,68.373-68.373h0V0h0
		C82.99,0,0.152,82.838,0.152,185.023l0,244.549h259.143v-41.998H116.803z"/>
	<path style="fill:#CCCCCC;" d="M288.418,148.493h-106.78c-35.807,0-64.835,29.028-64.835,64.835v174.247h171.615V148.493z"/>
	<rect x="259.296" y="387.574" style="fill:#B3B3B3;" width="170.124" height="41.998"/>
	<rect x="213.142" y="349.055" style="fill:#666666;" width="187.491" height="38.519"/>
	<rect x="313.637" y="349.055" style="fill:#808080;" width="86.996" height="38.519"/>
	<rect x="387.637" y="19" style="fill:#999999;" width="17.968" height="89.494"/>
	<rect x="324.374" y="38" style="fill:#D3674A;" width="44.263" height="51.494"/>
	<rect x="337.374" y="38" style="fill:#EF7954;" width="44.263" height="51.494"/>
	<g>
		<rect x="45.407" y="181.055" style="fill:#D3674A;" width="40" height="40"/>
		<rect x="85.407" y="181.055" style="fill:#EF7954;" width="12" height="40"/>
	</g>
	<g>
		<rect x="45.407" y="239.555" style="fill:#D3674A;" width="40" height="40"/>
		<rect x="85.407" y="239.555" style="fill:#EF7954;" width="12" height="40"/>
	</g>
	<g>
		<rect x="45.407" y="298.055" style="fill:#D3674A;" width="40" height="40"/>
		<rect x="85.407" y="298.055" style="fill:#EF7954;" width="12" height="40"/>
	</g>
</g>
<g>
</g>
<g>
</g>
<g>
</g>
<g>
</g>
<g>
</g>
<g>
</g>
<g>
</g>
<g>
</g>
<g>
</g>
<g>
</g>
<g>
</g>
<g>
</g>
<g>
</g>
<g>
</g>
<g>
</g>
</svg>
