<?xml version="1.0" encoding="iso-8859-1"?>
<!-- Generator: Adobe Illustrator 19.0.0, SVG Export Plug-In . SVG Version: 6.00 Build 0)  -->
<svg version="1.1" id="Capa_1" xmlns="http://www.w3.org/2000/svg" xmlns:xlink="http://www.w3.org/1999/xlink" x="0px" y="0px"
	 viewBox="0 0 464 464" style="enable-background:new 0 0 464 464;" xml:space="preserve">
<g>
	<path style="fill:#D2967D;" d="M16,384h32l0,0c0-17.673,14.327-32,32-32h304c17.673,0,32,14.327,32,32l0,0h32v-96H16V384z"/>
	<path style="fill:#D2967D;" d="M72,224c-8.837,0-16-7.164-16-16v-64c0-8.836,7.163-16,16-16h136c8.837,0,16,7.164,16,16v64
		c0,8.836-7.163,16-16,16h48c-8.837,0-16-7.164-16-16v-64c0-8.836,7.163-16,16-16h136c8.837,0,16,7.164,16,16v64
		c0,8.836-7.163,16-16,16h32V96H40v128H72z"/>
	<path style="fill:#E6F5FA;" d="M224,208v-64c0-8.836-7.163-16-16-16H72c-8.837,0-16,7.164-16,16v64c0,8.836,7.163,16,16,16h136
		C216.837,224,224,216.836,224,208z M140,208c-13.908-6.865-29.333-23.692-29.333-37.692c0-10.111,7.699-18.308,17.195-18.308
		c4.738,0,9.028,2.042,12.138,5.342c3.11-3.3,7.4-5.342,12.138-5.342c9.497,0,17.195,8.197,17.195,18.308
		C169.333,184.308,153.908,201.135,140,208z"/>
	<path style="fill:#E6F5FA;" d="M408,208v-64c0-8.836-7.163-16-16-16H256c-8.837,0-16,7.164-16,16v64c0,8.836,7.163,16,16,16h136
		C400.837,224,408,216.836,408,208z M324,208c-13.908-6.865-29.333-23.692-29.333-37.692c0-10.111,7.699-18.308,17.195-18.308
		c4.738,0,9.028,2.042,12.138,5.342c3.11-3.3,7.4-5.342,12.138-5.342c9.497,0,17.195,8.197,17.195,18.308
		C353.333,184.308,337.908,201.135,324,208z"/>
	<path style="fill:#CCEFFC;" d="M448,224h-8h-16h-32H256h-48H72H40H24h-8c-8.837,0-16,7.164-16,16v16c0,8.836,7.163,16,16,16h432
		c8.837,0,16-7.164,16-16v-16C464,231.164,456.837,224,448,224z"/>
	<path style="fill:#FF9A96;" d="M152.138,152c-4.738,0-9.028,2.042-12.138,5.342c-3.11-3.3-7.4-5.342-12.138-5.342
		c-9.497,0-17.195,8.197-17.195,18.308c0,14,15.426,30.827,29.333,37.692c13.908-6.865,29.333-23.692,29.333-37.692
		C169.333,160.197,161.635,152,152.138,152z"/>
	<path style="fill:#FF9A96;" d="M336.138,152c-4.738,0-9.028,2.042-12.138,5.342c-3.11-3.3-7.4-5.342-12.138-5.342
		c-9.497,0-17.195,8.197-17.195,18.308c0,14,15.426,30.827,29.333,37.692c13.908-6.865,29.333-23.692,29.333-37.692
		C353.333,160.197,345.635,152,336.138,152z"/>
	<path style="fill:#BE7869;" d="M40,96v-8c0-4.418-3.582-8-8-8s-8,3.582-8,8v136h16V96z"/>
	<path style="fill:#BE7869;" d="M440,224V88c0-4.418-3.582-8-8-8s-8,3.582-8,8v8v128H440z"/>
	<rect x="16" y="272" style="fill:#BE7869;" width="432" height="16"/>
</g>
<g>
</g>
<g>
</g>
<g>
</g>
<g>
</g>
<g>
</g>
<g>
</g>
<g>
</g>
<g>
</g>
<g>
</g>
<g>
</g>
<g>
</g>
<g>
</g>
<g>
</g>
<g>
</g>
<g>
</g>
</svg>
