<?xml version="1.0" encoding="iso-8859-1"?>
<!-- Generator: Adobe Illustrator 19.0.0, SVG Export Plug-In . SVG Version: 6.00 Build 0)  -->
<svg version="1.1" id="Capa_1" xmlns="http://www.w3.org/2000/svg" xmlns:xlink="http://www.w3.org/1999/xlink" x="0px" y="0px"
	 viewBox="0 0 60 60" style="enable-background:new 0 0 60 60;" xml:space="preserve">
<g>
	<g>
		<path d="M59,12c0.6,0,1-0.4,1-1V1c0-0.6-0.4-1-1-1H39H21H1C0.4,0,0,0.4,0,1v10c0,0.6,0.4,1,1,1h3v34H1c-0.6,0-1,0.4-1,1v11
			c0,1.2,0.8,2,2,2h56c1.2,0,2-0.8,2-2V47c0-0.6-0.4-1-1-1h-3V12H59z M38,2v4H22V2H38z M2,2h18v5c0,0.6,0.4,1,1,1h18
			c0.6,0,1-0.4,1-1V2h18v8h-3H40H20H5H2V2z M34,26h2v2h-2V26z M36,24h-3h-6h-3v-4h12V24z M24,26h2v2h-2V26z M37,18H23h-2v-6h18v6H37
			z M9,12v28H6V12H9z M58,58H2V48h3h18h14h18h3V58z M38,36h3v5h-3V36z M36,46H24V36h12V46z M38,46v-3h4c0.6,0,1-0.4,1-1v-7
			c0-0.6-0.4-1-1-1h-5H23c-0.6,0-1,0.4-1,1v11H6v-4h14v-2h-9V12h8v7c0,0.6,0.4,1,1,1h2v5v4c0,0.6,0.4,1,1,1h4c0.6,0,1-0.4,1-1v-3h4
			v3c0,0.6,0.4,1,1,1h4c0.6,0,1-0.4,1-1v-4v-5h2c0.6,0,1-0.4,1-1v-7h8v28h-4v2h9v4H38z M54,40h-3V12h3V40z"/>
		<rect x="22" y="50" width="16" height="2"/>
		<rect x="22" y="54" width="16" height="2"/>
		<rect x="44" y="5" width="2" height="2"/>
		<rect x="48" y="5" width="2" height="2"/>
		<rect x="52" y="5" width="2" height="2"/>
		<rect x="6" y="5" width="2" height="2"/>
		<rect x="10" y="5" width="2" height="2"/>
		<rect x="14" y="5" width="2" height="2"/>
	</g>
</g>
<g>
</g>
<g>
</g>
<g>
</g>
<g>
</g>
<g>
</g>
<g>
</g>
<g>
</g>
<g>
</g>
<g>
</g>
<g>
</g>
<g>
</g>
<g>
</g>
<g>
</g>
<g>
</g>
<g>
</g>
</svg>
