<?xml version="1.0" encoding="iso-8859-1"?>
<!-- Generator: Adobe Illustrator 18.1.1, SVG Export Plug-In . SVG Version: 6.00 Build 0)  -->
<svg version="1.1" id="Capa_1" xmlns="http://www.w3.org/2000/svg" xmlns:xlink="http://www.w3.org/1999/xlink" x="0px" y="0px"
	 viewBox="0 0 290.071 290.071" style="enable-background:new 0 0 290.071 290.071;" xml:space="preserve">
<path color-rendering="auto" image-rendering="auto" shape-rendering="auto" color-interpolation="sRGB" d="M264.926,0.001
	c-0.242,0.006-0.482,0.029-0.721,0.07H25.002c-2.761,0-5,2.239-5,5v280c0,2.761,2.239,5,5,5h240c2.761,0,5-2.239,5-5V5.889
	c0.264-1.598-0.262-3.225-1.412-4.365c-0.025-0.028-0.05-0.055-0.076-0.082c-0.004-0.003-0.008-0.007-0.012-0.01
	c-0.006-0.007-0.013-0.013-0.019-0.019c-0.951-0.923-2.229-1.431-3.555-1.412L264.926,0.001z M30.002,10.071h230v270h-230V10.071z
	 M44.256,20.071c-2.35,0.001-4.254,1.906-4.254,4.256v241.49c0.001,2.349,1.905,4.253,4.254,4.254h201.562
	c2.349-0.001,4.253-1.905,4.254-4.254V24.327c0-2.35-1.904-4.255-4.254-4.256C245.818,20.071,44.256,20.071,44.256,20.071z
	 M48.512,28.583h193.051v232.979H48.512C48.512,261.561,48.512,28.583,48.512,28.583z M145.002,40.071c-44.124,0-80,35.876-80,80
	c0,44.123,35.876,80,80,80c44.124,0,80-35.877,80-80C225.002,75.947,189.126,40.071,145.002,40.071z M145.002,50.071
	c38.719,0,70,31.281,70,70h-26.615l-18.742-46.857c-0.767-1.915-2.631-3.162-4.693-3.141c-2.025,0.02-3.839,1.26-4.592,3.141
	l-18.742,46.857h-26.615c-2.153,0-4.064,1.378-4.744,3.42l-5.256,15.769l-5.258-15.769c-0.68-2.042-2.59-3.419-4.742-3.42h-20
	C75.002,81.352,106.283,50.071,145.002,50.071z M165.002,88.534l15.357,38.395c0.76,1.898,2.598,3.143,4.643,3.143h29.281
	c-4.84,33.964-33.96,60-69.281,60s-64.439-26.036-69.279-60h15.676l8.859,26.582c1.521,4.556,7.965,4.556,9.486,0l8.861-26.582
	h26.397c2.044,0,3.883-1.245,4.643-3.143L165.002,88.534z M95.002,215.071c-5.523,0-10,4.477-10,10s4.477,10,10,10s10-4.477,10-10
	S100.525,215.071,95.002,215.071z M195.002,215.071c-5.523,0-10,4.477-10,10s4.477,10,10,10s10-4.477,10-10
	S200.525,215.071,195.002,215.071z"/>
<g>
</g>
<g>
</g>
<g>
</g>
<g>
</g>
<g>
</g>
<g>
</g>
<g>
</g>
<g>
</g>
<g>
</g>
<g>
</g>
<g>
</g>
<g>
</g>
<g>
</g>
<g>
</g>
<g>
</g>
</svg>
